Coordinates
version=1
nRows=13
nColumns=40
inDegrees=yes

Units are S.I. units (second, meters, Newtons, ...)
Angles are in degrees.

endheader
time	pelvis_tilt	pelvis_list	pelvis_rotation	pelvis_tx	pelvis_ty	pelvis_tz	hip_flexion_r	hip_adduction_r	hip_rotation_r	knee_angle_r	knee_angle_r_beta	ankle_angle_r	subtalar_angle_r	mtp_angle_r	hip_flexion_l	hip_adduction_l	hip_rotation_l	knee_angle_l	knee_angle_l_beta	ankle_angle_l	subtalar_angle_l	mtp_angle_l	lumbar_extension	lumbar_bending	lumbar_rotation	arm_flex_r	arm_add_r	arm_rot_r	elbow_flex_r	pro_sup_r	wrist_flex_r	wrist_dev_r	arm_flex_l	arm_add_l	arm_rot_l	elbow_flex_l	pro_sup_l	wrist_flex_l	wrist_dev_l
     16.96500000	     -2.48596029	     -4.85611339	     -0.47312569	      1.13090168	      0.91446794	      0.44805315	     24.09917144	      0.65456027	    -14.86390227	     25.54333722	     25.54333722	      5.53971952	     -6.92369563	     -3.73743916	      4.22680643	    -11.62165051	     -6.74665089	     45.77903162	     45.77903162	      9.80111958	    -18.11761921	     -8.64478703	    -10.49373871	      8.23793496	      2.24143698	    -15.40709549	    -11.01472792	    -18.33345776	     22.24630141	     47.56869343	      0.00000000	      0.00000000	     20.47761784	    -17.53468156	     -9.17631040	     96.91013153	     47.90860546	      0.00000000	      0.00000000
     16.97657143	     -2.59112863	     -4.98027027	     -0.10413809	      1.13049502	      0.91606423	      0.45022689	     23.27839174	      0.84005114	    -15.45092632	     25.06325030	     25.06325030	      6.11803149	     -6.35227380	     -3.82208880	      7.09637339	    -11.96074939	     -5.19671645	     50.73605932	     50.73605932	     10.28781983	    -18.24815776	     -0.95609073	    -10.44802974	      8.30198768	      2.00746314	    -13.52372087	    -11.29151362	    -17.18444524	     22.56023983	     47.43600448	      0.00000000	      0.00000000	     18.75411977	    -16.80868111	     -9.72649078	     96.80669426	     47.98218225	      0.00000000	      0.00000000
     16.98814286	     -2.51577953	     -5.24477913	      0.21706124	      1.13004072	      0.91772740	      0.45263991	     22.23275650	      1.28532201	    -15.84016823	     24.47552968	     24.47552968	      6.56185546	     -6.08862668	     -3.87490962	      9.47577240	    -12.69260884	     -4.29828370	     54.71971621	     54.71971621	      8.51301024	    -18.62041604	     -0.28201931	    -10.64912153	      8.46615030	      2.52229639	    -11.88700477	    -11.40431583	    -17.00000128	     23.17427198	     47.40461764	      0.00000000	      0.00000000	     17.57644745	    -15.74040343	     -9.15780410	     96.38592036	     47.93632614	      0.00000000	      0.00000000
     16.99971429	     -2.62984796	     -5.51289942	      0.62950485	      1.12934366	      0.91908088	      0.45475526	     21.31796598	      1.71635761	    -16.35506838	     23.70087426	     23.70087426	      6.89512109	     -5.75664655	     -3.89550271	     12.20694247	    -13.26000219	     -3.16864331	     58.48290887	     58.48290887	      7.36359459	    -18.81837469	      1.18703297	    -10.57559227	      8.68565883	      2.80895027	    -10.28879909	    -11.61616224	    -16.77664642	     23.89497693	     47.36352407	      0.00000000	      0.00000000	     16.20462117	    -14.91391525	     -8.68280904	     95.54556242	     47.88886998	      0.00000000	      0.00000000
     17.01128571	     -2.68852945	     -5.48913383	      0.99312163	      1.12841747	      0.92056173	      0.45653332	     20.42483066	      1.80262801	    -16.81262354	     23.06101354	     23.06101354	      7.15202401	     -5.27075735	     -4.24018726	     15.09962159	    -13.03712538	     -1.68391016	     62.30327641	     62.30327641	      9.34418064	    -18.58940900	     10.58662716	    -10.59034495	      8.59067875	      3.00637075	     -8.71441576	    -12.00007679	    -14.96869260	     25.30578678	     47.12001799	      0.00000000	      0.00000000	     14.94712592	    -14.03429564	     -8.56485949	     93.85875955	     47.89402550	      0.00000000	      0.00000000
     17.02285714	     -2.65490017	     -5.59890041	      1.35816023	      1.12755407	      0.92199930	      0.45851816	     19.43967757	      2.11062737	    -17.10095206	     22.41470508	     22.41470508	      7.47019459	     -5.08496135	     -4.21757786	     17.48436769	    -13.28330870	     -0.83694966	     64.94561521	     64.94561521	      8.51325122	    -18.73415050	     10.66517920	    -10.72207213	      8.57406296	      3.29921500	     -6.81501676	    -12.24721936	    -14.77248953	     26.18321036	     47.07948726	      0.00000000	      0.00000000	     13.56541193	    -13.16147993	     -7.92811587	     92.83216057	     47.82921094	      0.00000000	      0.00000000
     17.03442857	     -2.71156906	     -5.73135351	      1.76153698	      1.12658843	      0.92330160	      0.46044005	     18.46977555	      2.46265479	    -17.44536865	     21.57434351	     21.57434351	      7.69354296	     -4.82200241	     -4.17088815	     19.97233186	    -13.45594612	      0.03689949	     67.13619695	     67.13619695	      8.13705109	    -18.77849506	     10.99947886	    -10.70639277	      8.60968994	      3.35905548	     -4.84347280	    -12.51311534	    -14.45789525	     27.23168037	     47.02071386	      0.00000000	      0.00000000	     12.11596479	    -12.65107430	     -7.43668015	     90.94749963	     47.75837029	      0.00000000	      0.00000000
     17.04600000	     -2.62981879	     -5.73372974	      2.10087220	      1.12566158	      0.92482868	      0.46230698	     17.37290543	      2.70074005	    -17.67491296	     20.78671745	     20.78671745	      7.90991271	     -4.55991232	     -4.25602988	     22.15722253	    -13.44312461	      0.70421627	     68.73397143	     68.73397143	      8.24470450	    -18.72866245	     11.82807443	    -10.82357441	      8.47187179	      3.49200805	     -2.75700535	    -12.84193992	    -13.69786394	     28.47663650	     46.91485325	      0.00000000	      0.00000000	     11.02912893	    -11.99448175	     -7.01121636	     87.97822931	     47.68225572	      0.00000000	      0.00000000
     17.05757143	     -2.57873652	     -5.61933852	      2.34977465	      1.12463300	      0.92615036	      0.46412850	     16.46331000	      2.79625484	    -17.74142644	     20.28859882	     20.28859882	      8.20314678	     -4.44191390	     -4.26849896	     24.21623038	    -13.35482690	      1.04729897	     69.73972906	     69.73972906	      8.26562580	    -18.74026640	     11.73789301	    -11.02784158	      8.16137974	      4.04779027	     -0.68789359	    -13.18463869	    -13.53851231	     29.38298156	     46.88057431	      0.00000000	      0.00000000	      9.66618214	    -10.97346046	     -6.37079288	     86.75487448	     47.61196437	      0.00000000	      0.00000000
     17.06914286	     -2.58519549	     -5.69036145	      2.74412253	      1.12362928	      0.92751448	      0.46579826	     15.31983185	      3.14705274	    -18.05014774	     19.17550817	     19.17550817	      8.16430915	     -4.14590550	     -4.64370651	     26.34524467	    -13.33250495	      1.60174221	     70.25146350	     70.25146350	      8.72800582	    -18.59667497	     12.52489215	    -10.94605484	      8.16511310	      4.41290684	      0.84819697	    -13.86905227	    -11.14160652	     31.39677580	     46.60139031	      0.00000000	      0.00000000	      9.37769793	    -10.37770438	     -5.50646039	     81.15345402	     47.49331724	      0.00000000	      0.00000000
     17.08071429	     -2.57775548	     -5.66448872	      3.06717535	      1.12258599	      0.92871059	      0.46740168	     14.28355011	      3.37372670	    -18.25221907	     18.30834312	     18.30834312	      8.33123083	     -3.84920076	     -4.75199045	     28.24584096	    -13.26924083	      1.85558897	     70.13380546	     70.13380546	      8.86948710	    -18.54200226	     12.24737988	    -10.98102851	      8.00863467	      4.56683408	      2.99719070	    -14.35094399	    -10.17100251	     32.78642671	     46.47601118	      0.00000000	      0.00000000	      8.43303039	     -9.73639083	     -5.06464155	     77.54010659	     47.41662828	      0.00000000	      0.00000000
     17.09228571	     -2.56199275	     -5.62384722	      3.38942184	      1.12155484	      0.92987817	      0.46887364	     13.21305448	      3.60239076	    -18.41055647	     17.39505057	     17.39505057	      8.52742235	     -3.57159817	     -4.68796247	     29.95398078	    -13.18233343	      1.98010601	     69.42253245	     69.42253245	      9.06204798	    -18.49762763	     12.13142493	    -11.05421011	      7.84151283	      4.30706906	      5.54121524	    -14.57002546	     -9.98364574	     34.09101156	     46.42511152	      0.00000000	      0.00000000	      6.95260981	     -9.50589085	     -4.56433626	     74.74980516	     47.32988465	      0.00000000	      0.00000000
     17.10385714	     -2.54197479	     -5.54410856	      3.67354284	      1.12049759	      0.93096439	      0.47016086	     12.15145608	      3.76415790	    -18.63211051	     16.50891846	     16.50891846	      8.65008564	     -3.15238759	     -4.90432557	     31.44922641	    -13.06704683	      1.91757620	     68.15717136	     68.15717136	      9.18501228	    -18.50898694	     11.97055880	    -11.04599652	      7.66087947	      4.79646645	      7.67464710	    -15.19245256	     -9.06623085	     35.17205307	     46.32367476	      0.00000000	      0.00000000	      6.82516362	     -8.56688570	     -4.16817286	     69.17502736	     47.22349674	      0.00000000	      0.00000000
